HIERARCHY
ROOT Hips
{
  OFFSET 5.72205e-005 65.662 3.42586
  CHANNELS 6 Xposition Yposition Zposition Zrotation Xrotation Yrotation
  JOINT Chest
  {
    OFFSET 0 8.7983 -4.7612
    CHANNELS 6 Xposition Yposition Zposition Zrotation Xrotation Yrotation
    JOINT Chest2
    {
      OFFSET 0 8.0291 0.4195
      CHANNELS 6 Xposition Yposition Zposition Zrotation Xrotation Yrotation
      JOINT Chest3
      {
        OFFSET 0 9.9351 -2.2114
        CHANNELS 6 Xposition Yposition Zposition Zrotation Xrotation Yrotation
        JOINT Neck
        {
          OFFSET 0 22.3885 -0.4656
          CHANNELS 6 Xposition Yposition Zposition Zrotation Xrotation Yrotation
          JOINT Head
          {
            OFFSET -0.0001 12.643 3.4389
            CHANNELS 6 Xposition Yposition Zposition Zrotation Xrotation Yrotation
            End Site
            {
              OFFSET 0.0001 17.6655 0.5274
            }
          }
        }
        JOINT LeftCollar
        {
          OFFSET 2.2603 21.606 7.4023
          CHANNELS 6 Xposition Yposition Zposition Zrotation Xrotation Yrotation
          JOINT LeftShoulder
          {
            OFFSET 13.5163 -1.1332 -5.0146
            CHANNELS 6 Xposition Yposition Zposition Zrotation Xrotation Yrotation
            JOINT LeftElbow
            {
              OFFSET -0.0995 -28.05 -0.2431
              CHANNELS 6 Xposition Yposition Zposition Zrotation Xrotation Yrotation
              JOINT LeftWrist
              {
                OFFSET 0.0679 -23.3996 -0.1402
                CHANNELS 6 Xposition Yposition Zposition Zrotation Xrotation Yrotation
                JOINT LeftFinger1
                {
                  OFFSET 0.7932 -9.069 2.5189
                  CHANNELS 6 Xposition Yposition Zposition Zrotation Xrotation Yrotation
                  JOINT LeftFinger11
                  {
                    OFFSET -0.8272 -3.3923 0.5977
                    CHANNELS 6 Xposition Yposition Zposition Zrotation Xrotation Yrotation
                    JOINT LeftFinger12
                    {
                      OFFSET -0.5649 -2.3158 0.4082
                      CHANNELS 6 Xposition Yposition Zposition Zrotation Xrotation Yrotation
                      End Site
                      {
                        OFFSET -0.4919 -1.6479 0.2673
                      }
                    }
                  }
                }
                JOINT LeftFinger2
                {
                  OFFSET 0.9159 -9.2044 0.2193
                  CHANNELS 6 Xposition Yposition Zposition Zrotation Xrotation Yrotation
                  JOINT LeftFinger21
                  {
                    OFFSET 0.0117 -4.1944 -0.0248
                    CHANNELS 6 Xposition Yposition Zposition Zrotation Xrotation Yrotation
                    JOINT LeftFinger22
                    {
                      OFFSET 0.0071 -2.3249 -0.0142
                      CHANNELS 6 Xposition Yposition Zposition Zrotation Xrotation Yrotation
                      End Site
                      {
                        OFFSET -0.1475 -2.0882 0.0028
                      }
                    }
                  }
                }
                JOINT LeftFinger3
                {
                  OFFSET 0.6113 -8.7231 -2.0637
                  CHANNELS 6 Xposition Yposition Zposition Zrotation Xrotation Yrotation
                  JOINT LeftFinger31
                  {
                    OFFSET -0.1927 -3.8059 -0.2383
                    CHANNELS 6 Xposition Yposition Zposition Zrotation Xrotation Yrotation
                    JOINT LeftFinger32
                    {
                      OFFSET -0.1091 -2.1688 -0.1362
                      CHANNELS 6 Xposition Yposition Zposition Zrotation Xrotation Yrotation
                      End Site
                      {
                        OFFSET -0.2358 -1.9176 -0.0906
                      }
                    }
                  }
                }
                JOINT LeftFinger4
                {
                  OFFSET -0.6151 -8.0947 -3.5641
                  CHANNELS 6 Xposition Yposition Zposition Zrotation Xrotation Yrotation
                  JOINT LeftFinger41
                  {
                    OFFSET -0.4882 -2.341 -0.6462
                    CHANNELS 6 Xposition Yposition Zposition Zrotation Xrotation Yrotation
                    JOINT LeftFinger42
                    {
                      OFFSET -0.3575 -1.7167 -0.4742
                      CHANNELS 6 Xposition Yposition Zposition Zrotation Xrotation Yrotation
                      End Site
                      {
                        OFFSET -0.4187 -1.5237 -0.3496
                      }
                    }
                  }
                }
                JOINT LeftFinger0
                {
                  OFFSET -1.42 -1.8761 1.4223
                  CHANNELS 6 Xposition Yposition Zposition Zrotation Xrotation Yrotation
                  JOINT LeftFinger01
                  {
                    OFFSET -1.1471 -3.4929 2.6334
                    CHANNELS 6 Xposition Yposition Zposition Zrotation Xrotation Yrotation
                    JOINT LeftFinger02
                    {
                      OFFSET -0.823 -2.3 1.6571
                      CHANNELS 6 Xposition Yposition Zposition Zrotation Xrotation Yrotation
                      End Site
                      {
                        OFFSET -0.5822 -1.6914 1.1582
                      }
                    }
                  }
                }
              }
            }
          }
        }
        JOINT RightCollar
        {
          OFFSET -2.2603 21.606 7.4023
          CHANNELS 6 Xposition Yposition Zposition Zrotation Xrotation Yrotation
          JOINT RightShoulder
          {
            OFFSET -13.5187 -1.1334 -5.0155
            CHANNELS 6 Xposition Yposition Zposition Zrotation Xrotation Yrotation
            JOINT RightElbow
            {
              OFFSET 0.0994 -28.0499 -0.2431
              CHANNELS 6 Xposition Yposition Zposition Zrotation Xrotation Yrotation
              JOINT RightWrist
              {
                OFFSET -0.0679 -23.3996 -0.1402
                CHANNELS 6 Xposition Yposition Zposition Zrotation Xrotation Yrotation
                JOINT RightFinger1
                {
                  OFFSET -0.7932 -9.0691 2.5189
                  CHANNELS 6 Xposition Yposition Zposition Zrotation Xrotation Yrotation
                  JOINT RightFinger11
                  {
                    OFFSET 0.8272 -3.3923 0.5977
                    CHANNELS 6 Xposition Yposition Zposition Zrotation Xrotation Yrotation
                    JOINT RightFinger12
                    {
                      OFFSET 0.565 -2.3158 0.4082
                      CHANNELS 6 Xposition Yposition Zposition Zrotation Xrotation Yrotation
                      End Site
                      {
                        OFFSET 0.4919 -1.6479 0.2673
                      }
                    }
                  }
                }
                JOINT RightFinger2
                {
                  OFFSET -0.916 -9.2044 0.2193
                  CHANNELS 6 Xposition Yposition Zposition Zrotation Xrotation Yrotation
                  JOINT RightFinger21
                  {
                    OFFSET -0.0117 -4.1944 -0.0248
                    CHANNELS 6 Xposition Yposition Zposition Zrotation Xrotation Yrotation
                    JOINT RightFinger22
                    {
                      OFFSET -0.0071 -2.3249 -0.0142
                      CHANNELS 6 Xposition Yposition Zposition Zrotation Xrotation Yrotation
                      End Site
                      {
                        OFFSET 0.1475 -2.0882 0.0028
                      }
                    }
                  }
                }
                JOINT RightFinger3
                {
                  OFFSET -0.6113 -8.7231 -2.0637
                  CHANNELS 6 Xposition Yposition Zposition Zrotation Xrotation Yrotation
                  JOINT RightFinger31
                  {
                    OFFSET 0.1927 -3.8059 -0.2383
                    CHANNELS 6 Xposition Yposition Zposition Zrotation Xrotation Yrotation
                    JOINT RightFinger32
                    {
                      OFFSET 0.1091 -2.1688 -0.1362
                      CHANNELS 6 Xposition Yposition Zposition Zrotation Xrotation Yrotation
                      End Site
                      {
                        OFFSET 0.2358 -1.9176 -0.0906
                      }
                    }
                  }
                }
                JOINT RightFinger4
                {
                  OFFSET 0.6151 -8.0947 -3.564
                  CHANNELS 6 Xposition Yposition Zposition Zrotation Xrotation Yrotation
                  JOINT RightFinger41
                  {
                    OFFSET 0.4882 -2.341 -0.6462
                    CHANNELS 6 Xposition Yposition Zposition Zrotation Xrotation Yrotation
                    JOINT RightFinger42
                    {
                      OFFSET 0.3574 -1.7166 -0.4742
                      CHANNELS 6 Xposition Yposition Zposition Zrotation Xrotation Yrotation
                      End Site
                      {
                        OFFSET 0.4187 -1.5237 -0.3496
                      }
                    }
                  }
                }
                JOINT RightFinger0
                {
                  OFFSET 1.4199 -1.8761 1.4221
                  CHANNELS 6 Xposition Yposition Zposition Zrotation Xrotation Yrotation
                  JOINT RightFinger01
                  {
                    OFFSET 1.1472 -3.4929 2.6336
                    CHANNELS 6 Xposition Yposition Zposition Zrotation Xrotation Yrotation
                    JOINT RightFinger02
                    {
                      OFFSET 0.8229 -2.3 1.6571
                      CHANNELS 6 Xposition Yposition Zposition Zrotation Xrotation Yrotation
                      End Site
                      {
                        OFFSET 0.5822 -1.6914 1.1582
                      }
                    }
                  }
                }
              }
            }
          }
        }
      }
    }
  }
  JOINT RightHip
  {
    OFFSET -9.412 3.9771 -0.7758
    CHANNELS 6 Xposition Yposition Zposition Zrotation Xrotation Yrotation
    JOINT RightKnee
    {
      OFFSET -0.7531 -40.938 0
      CHANNELS 6 Xposition Yposition Zposition Zrotation Xrotation Yrotation
      JOINT RightAnkle
      {
        OFFSET 0 -40.1986 0
        CHANNELS 6 Xposition Yposition Zposition Zrotation Xrotation Yrotation
        JOINT RightToe
        {
          OFFSET 0 -4.4182 9.239
          CHANNELS 6 Xposition Yposition Zposition Zrotation Xrotation Yrotation
          End Site
          {
            OFFSET 0 0 6.1981
          }
        }
      }
    }
  }
  JOINT LeftHip
  {
    OFFSET 9.4119 3.9773 -0.7758
    CHANNELS 6 Xposition Yposition Zposition Zrotation Xrotation Yrotation
    JOINT LeftKnee
    {
      OFFSET 0.7532 -40.9383 0
      CHANNELS 6 Xposition Yposition Zposition Zrotation Xrotation Yrotation
      JOINT LeftAnkle
      {
        OFFSET 0 -40.1986 0
        CHANNELS 6 Xposition Yposition Zposition Zrotation Xrotation Yrotation
        JOINT LeftToe
        {
          OFFSET 0 -4.4182 9.239
          CHANNELS 6 Xposition Yposition Zposition Zrotation Xrotation Yrotation
          End Site
          {
            OFFSET 0 0 6.1981
          }
        }
      }
    }
  }
}
MOTION
Frames:	4
Frame Time:	0.0333333
0.230291 -0.108658 81.3791 179.996 -89.9981 179.996 0 8.7983 -4.7612 -0.124865 1.83718 -0.145049 0 8.0291 0.4195 -0.245264 3.67468 -0.286311 0 9.9351 -2.2114 -0.245264 3.67468 -0.286311 0 22.3885 -0.4656 1.10153e-007 49.6477 -5.35263e-007 -0.0001 12.643 3.4389 1.2179e-007 -43.7997 2.3402e-007 2.2603 21.606 7.4023 -22.6436 -9.78468 1.43209 13.5163 -1.1332 -5.0146 32.3985 -34.5757 13.5737 -0.0995 -28.05 -0.2431 -109.831 -64.6504 -81.7211 0.0679 -23.3996 -0.1402 -47.1715 32.9277 -6.61027 0.7932 -9.069 2.5189 -1.30494e-008 9.72765e-007 1.48154e-006 -0.8272 -3.3923 0.5977 2.60989e-008 2.13781e-008 -2.96309e-006 -0.5649 -2.3158 0.4082 -1.73631e-006 -1.05109e-008 2.93589e-006 0.915901 -9.2044 0.2193 -1.30494e-008 9.72765e-007 1.48154e-006 0.0117 -4.1944 -0.0248 -0.0128418 0.00232388 8.53825e-005 0.0071 -2.3249 -0.0142 1.68284e-006 3.93542e-006 2.99036e-006 0.6113 -8.7231 -2.0637 -1.30494e-008 9.72765e-007 1.48154e-006 -0.1927 -3.8059 -0.2383 -0.0159957 0.00298671 0.000852849 -0.1091 -2.1688 -0.1362 7.56238e-007 2.39721e-006 3.15236e-006 -0.6151 -8.0947 -3.5641 -1.30494e-008 9.72765e-007 1.48154e-006 -0.4882 -2.341 -0.6462 -0.0126249 0.00312611 0.00283614 -0.3575 -1.7167 -0.4742 -3.99521e-008 1.95069e-006 4.44476e-006 -1.42 -1.8761 1.4223 -1.30494e-008 9.72765e-007 1.48154e-006 -1.1471 -3.4929 2.6334 2.60989e-008 2.13781e-008 -2.96309e-006 -0.823001 -2.3 1.6571 -1.73631e-006 -1.05109e-008 2.93589e-006 -2.2603 21.606 7.4023 14.9151 -7.98022 1.03801 -13.5187 -1.1334 -5.0155 -27.1145 -20.5552 -6.67228 0.0994 -28.0499 -0.2431 40.1896 -69.1503 9.95406 -0.0679 -23.3996 -0.1402 45.6004 -0.466908 18.2056 -0.793201 -9.0691 2.5189 4.96962e-015 -1.59028e-015 -5.56597e-015 0.827201 -3.3923 0.5977 8.54774e-015 1.59028e-015 -3.18055e-015 0.565 -2.3158 0.4082 1.13307e-014 -3.18055e-015 -2.38542e-015 -0.916001 -9.2044 0.2193 4.96962e-015 -1.59028e-015 -5.56597e-015 -0.0117 -4.1944 -0.0248 0.0129701 0.00231933 -8.36247e-005 -0.00710001 -2.3249 -0.0142 5.56597e-015 1.59028e-015 7.95139e-016 -0.6113 -8.7231 -2.0637 4.96962e-015 -1.59028e-015 -5.56597e-015 0.1927 -3.8059 -0.2383 0.0163338 0.00303057 -0.00086925 0.1091 -2.1688 -0.1362 -9.54166e-015 -4.77083e-015 2.38542e-015 0.6151 -8.0947 -3.564 4.96962e-015 -1.59028e-015 -5.56597e-015 0.4882 -2.341 -0.6462 0.0145708 0.00366948 -0.00325781 0.3574 -1.7166 -0.4742 1.98785e-015 -2.54444e-014 -0 1.4199 -1.8761 1.4221 4.96962e-015 -1.59028e-015 -5.56597e-015 1.1472 -3.4929 2.6336 8.54774e-015 1.59028e-015 -3.18055e-015 0.822901 -2.3 1.6571 1.13307e-014 -3.18055e-015 -2.38542e-015 -9.412 3.9771 -0.7758 -8.74095 -13.946 -5.06324 -0.7531 -40.938 0 2.31671 45.2584 -2.43105 -1.77636e-015 -40.1986 2.84217e-014 -9.18001 12.6541 0.994079 -7.10543e-015 -4.4182 9.239 7.83025e-007 -4.738e-006 3.22841e-007 9.4119 3.9773 -0.7758 15.7748 1.21075 6.76423 0.7532 -40.9383 3.33067e-016 1.88399 8.8068 -0.245585 0 -40.1986 0 8.01946 9.77063 -4.07727 7.10543e-015 -4.4182 9.239 2.66972e-006 5.48916e-006 -2.65586e-006 
0.230681 -0.109283 81.379 179.996 -89.9981 179.996 0 8.7983 -4.7612 -0.124865 1.83718 -0.145049 0 8.0291 0.4195 -0.245264 3.67468 -0.286311 -1.11022e-016 9.9351 -2.2114 -0.245264 3.67468 -0.286311 0 22.3885 -0.4656 2.19546e-007 49.4144 -6.00593e-007 -0.0001 12.643 3.4389 5.63709e-008 -42.9959 2.60735e-007 2.2603 21.606 7.4023 -22.6436 -9.78468 1.43209 13.5163 -1.1332 -5.0146 32.3985 -34.5757 13.5738 -0.0995 -28.05 -0.2431 -110.033 -64.5076 -81.9125 0.0679 -23.3996 -0.1402 -46.6544 32.857 -6.67419 0.7932 -9.069 2.5189 -4.11236e-015 3.40419e-015 3.18055e-015 -0.8272 -3.3923 0.5977 5.41688e-015 -1.16786e-015 -9.54166e-015 -0.5649 -2.3158 0.4082 -4.11236e-015 -2.48481e-017 -0 0.9159 -9.2044 0.2193 -4.11236e-015 3.40419e-015 3.18055e-015 0.0117 -4.1944 -0.0248 -0.012839 0.00233968 9.01368e-005 0.0071 -2.3249 -0.0142 1.27995e-008 -9.73705e-007 -2.96572e-006 0.6113 -8.7231 -2.0637 -4.11236e-015 3.40419e-015 3.18055e-015 -0.1927 -3.8059 -0.2383 -0.0160592 0.00299829 0.000855246 -0.1091 -2.1688 -0.1362 1.29287e-008 -1.94932e-006 -2.96574e-006 -0.6151 -8.0947 -3.5641 -4.11236e-015 3.40419e-015 3.18055e-015 -0.4882 -2.341 -0.6462 -0.0125872 0.00312544 0.00282533 -0.3575 -1.7167 -0.4742 1.28326e-008 -1.95988e-006 -2.9658e-006 -1.42 -1.8761 1.4223 -4.11236e-015 3.40419e-015 3.18055e-015 -1.1471 -3.4929 2.6334 5.41688e-015 -1.16786e-015 -9.54166e-015 -0.823 -2.3 1.6571 -4.11236e-015 -2.48481e-017 -0 -2.2603 21.606 7.4023 14.9151 -7.98022 1.03801 -13.5187 -1.1334 -5.0155 -27.1146 -20.5552 -6.67231 0.0994 -28.0499 -0.2431 40.8434 -69.5237 10.5813 -0.0679 -23.3996 -0.1402 45.384 -0.516857 18.1924 -0.7932 -9.0691 2.5189 -1.59028e-015 -4.77083e-015 3.18055e-015 0.8272 -3.3923 0.5977 -1.59028e-015 -4.77083e-015 1.59028e-015 0.565 -2.3158 0.4082 2.38542e-015 -3.18055e-015 1.59028e-015 -0.916 -9.2044 0.2193 -1.59028e-015 -4.77083e-015 3.18055e-015 -0.0117 -4.1944 -0.0248 0.0129265 0.00230851 -8.39934e-005 -0.0071 -2.3249 -0.0142 3.57812e-015 0 -1.59028e-015 -0.6113 -8.7231 -2.0637 -1.59028e-015 -4.77083e-015 3.18055e-015 0.1927 -3.8059 -0.2383 0.0163486 0.00303679 -0.000872801 0.1091 -2.1688 -0.1362 7.56882e-006 -1.97879e-006 2.29518e-006 0.6151 -8.0947 -3.564 -1.59028e-015 -4.77083e-015 3.18055e-015 0.4882 -2.341 -0.6462 0.0146076 0.00368359 -0.00326883 0.3574 -1.7166 -0.4742 -9.93923e-015 -3.18055e-015 3.18055e-015 1.4199 -1.8761 1.4221 -1.59028e-015 -4.77083e-015 3.18055e-015 1.1472 -3.4929 2.6336 -1.59028e-015 -4.77083e-015 1.59028e-015 0.8229 -2.3 1.6571 2.38542e-015 -3.18055e-015 1.59028e-015 -9.412 3.9771 -0.7758 -8.55489 -13.9757 -4.69544 -0.7531 -40.938 0 2.31699 45.2626 -2.42911 0 -40.1986 1.42109e-014 -8.93962 12.6982 0.631325 3.55271e-015 -4.4182 9.239 1.4894e-006 -3.06366e-008 8.50594e-007 9.4119 3.9773 -0.7758 15.7172 1.255 6.2964 0.7532 -40.9383 4.44089e-016 1.88407 8.82364 -0.244142 -3.55271e-015 -40.1986 -3.55271e-015 7.89977 9.86928 -3.60799 1.42109e-014 -4.4182 9.239 1.46078e-006 -1.4469e-005 5.39817e-007 
0.231079 -0.109924 81.3789 179.996 -89.9981 179.996 2.77556e-017 8.7983 -4.7612 -0.124865 1.83718 -0.145049 0 8.0291 0.4195 -0.245264 3.67468 -0.286311 0 9.9351 -2.2114 -0.245264 3.67468 -0.286311 0 22.3885 -0.4656 1.09965e-007 49.1811 -2.18612e-007 -0.0001 12.643 3.4389 1.16337e-007 -42.1911 3.12065e-007 2.2603 21.606 7.4023 -22.6436 -9.78468 1.43209 13.5163 -1.1332 -5.0146 32.3985 -34.5757 13.5737 -0.0995 -28.05 -0.2431 -110.233 -64.3644 -82.1018 0.0679 -23.3996 -0.1402 -46.1375 32.7859 -6.73736 0.793201 -9.069 2.5189 -2.93159e-006 2.96805e-007 6.19699e-007 -0.8272 -3.3923 0.5977 -7.55602e-010 9.82051e-007 -1.48417e-006 -0.5649 -2.3158 0.4082 -6.68413e-015 1.96491e-006 -6.36111e-015 0.915901 -9.2044 0.2193 -2.93159e-006 2.96805e-007 6.19699e-007 0.0117 -4.1944 -0.0248 -0.0128241 0.00231965 7.99959e-005 0.0071 -2.3249 -0.0142 6.26482e-015 2.94677e-006 -3.18055e-015 0.6113 -8.7231 -2.0637 -2.93159e-006 2.96805e-007 6.19699e-007 -0.1927 -3.8059 -0.2383 -0.0160325 0.0029824 0.000843754 -0.1091 -2.1688 -0.1362 -4.42076e-010 9.82135e-007 -1.48418e-006 -0.6151 -8.0947 -3.5641 -2.93159e-006 2.96805e-007 6.19699e-007 -0.4882 -2.341 -0.6462 -0.0125894 0.00311128 0.00280883 -0.3575 -1.7167 -0.4742 -3.12775e-015 -2.04997e-016 6.36111e-015 -1.42 -1.8761 1.4223 -2.93159e-006 2.96805e-007 6.19699e-007 -1.1471 -3.4929 2.6334 -7.55602e-010 9.82051e-007 -1.48417e-006 -0.823001 -2.3 1.6571 -6.68413e-015 1.96491e-006 -6.36111e-015 -2.2603 21.606 7.4023 14.9151 -7.98022 1.03801 -13.5187 -1.1334 -5.0155 -27.1146 -20.5552 -6.6723 0.0994 -28.0499 -0.2431 41.521 -69.8946 11.2324 -0.0679 -23.3996 -0.1402 45.1676 -0.566763 18.1792 -0.7932 -9.0691 2.5189 7.95139e-016 3.18055e-015 -3.18055e-015 0.8272 -3.3923 0.5977 1.19271e-015 4.77083e-015 -1.59028e-015 0.565 -2.3158 0.4082 1.19271e-015 7.95139e-015 -1.59028e-015 -0.916 -9.2044 0.2193 7.95139e-016 3.18055e-015 -3.18055e-015 -0.0117 -4.1944 -0.0248 0.0129552 0.00231722 -8.65352e-005 -0.0071 -2.3249 -0.0142 4.77083e-015 0 -1.59028e-015 -0.6113 -8.7231 -2.0637 7.95139e-016 3.18055e-015 -3.18055e-015 0.1927 -3.8059 -0.2383 0.0163153 0.00303571 -0.00087519 0.1091 -2.1688 -0.1362 1.03368e-014 0 -0 0.6151 -8.0947 -3.564 7.95139e-016 3.18055e-015 -3.18055e-015 0.4882 -2.341 -0.6462 0.0146277 0.00369599 -0.00326894 0.3574 -1.7166 -0.4742 1.59547e-005 3.42875e-006 -2.79324e-006 1.4199 -1.8761 1.4221 7.95139e-016 3.18055e-015 -3.18055e-015 1.1472 -3.4929 2.6336 1.19271e-015 4.77083e-015 -1.59028e-015 0.8229 -2.3 1.6571 1.19271e-015 7.95139e-015 -1.59028e-015 -9.412 3.9771 -0.7758 -8.36861 -14.0038 -4.32741 -0.7531 -40.938 -3.55271e-015 2.31739 45.2661 -2.42713 -1.77636e-015 -40.1986 0 -8.69884 12.7409 0.26821 -3.55271e-015 -4.4182 9.239 1.25504e-006 2.56215e-006 -5.59152e-008 9.4119 3.9773 -0.7758 15.6599 1.30006 5.82843 0.7532 -40.9383 -1.11022e-016 1.88417 8.8398 -0.24276 1.06581e-014 -40.1986 0 7.77909 9.96739 -3.13818 0 -4.4182 9.239 3.04422e-007 7.72207e-006 -7.97466e-007 
0.231487 -0.110573 81.3788 179.996 -89.9981 179.996 0 8.7983 -4.7612 -0.124865 1.83718 -0.145049 0 8.0291 0.4195 -0.245264 3.67468 -0.286311 -1.11022e-016 9.9351 -2.2114 -0.245264 3.67468 -0.286311 0 22.3885 -0.4656 1.86039e-008 48.9478 -3.98573e-007 -0.0001 12.643 3.4389 6.1486e-008 -41.3855 -1.1263e-007 2.2603 21.606 7.4023 -22.6436 -9.78468 1.43209 13.5163 -1.1332 -5.0146 32.3985 -34.5757 13.5737 -0.0995 -28.05 -0.2431 -110.431 -64.221 -82.2888 0.0679 -23.3996 -0.1402 -45.621 32.7142 -6.7997 0.7932 -9.069 2.5189 7.90169e-015 -2.13694e-015 6.36111e-015 -0.8272 -3.3923 0.5977 1.49089e-015 -5.2181e-016 9.54166e-015 -0.5649 -2.3158 0.4082 -3.27995e-015 -1.2424e-016 6.36111e-015 0.9159 -9.2044 0.2193 7.90169e-015 -2.13694e-015 6.36111e-015 0.0117 -4.1944 -0.0248 -0.0127901 0.0023266 8.88104e-005 0.0071 -2.3249 -0.0142 3.23025e-015 -4.72114e-016 3.18055e-015 0.6113 -8.7231 -2.0637 7.90169e-015 -2.13694e-015 6.36111e-015 -0.1927 -3.8059 -0.2383 -0.016034 0.00300319 0.000865981 -0.1091 -2.1688 -0.1362 -1.25731e-014 6.26172e-015 -3.18055e-015 -0.6151 -8.0947 -3.5641 7.90169e-015 -2.13694e-015 6.36111e-015 -0.4882 -2.341 -0.6462 -0.0126082 0.00312748 0.00283336 -0.3575 -1.7167 -0.4742 -1.2859e-005 -2.37605e-006 -5.74145e-006 -1.42 -1.8761 1.4223 7.90169e-015 -2.13694e-015 6.36111e-015 -1.1471 -3.4929 2.6334 1.49089e-015 -5.2181e-016 9.54166e-015 -0.823 -2.3 1.6571 -3.27995e-015 -1.2424e-016 6.36111e-015 -2.2603 21.606 7.4023 14.9151 -7.98022 1.03801 -13.5187 -1.1334 -5.0155 -27.1145 -20.5552 -6.67228 0.0994 -28.0499 -0.2431 42.2232 -70.2629 11.9082 -0.0679 -23.3996 -0.1402 44.9511 -0.616618 18.1657 -0.7932 -9.0691 2.5189 -5.56597e-015 -6.36111e-015 -0 0.8272 -3.3923 0.5977 -5.1684e-015 -1.59028e-015 -3.18055e-015 0.565 -2.3158 0.4082 -4.37326e-015 -4.77083e-015 -0 -0.916 -9.2044 0.2193 -5.56597e-015 -6.36111e-015 -0 -0.0117 -4.1944 -0.0248 0.0129364 0.00231375 -8.43005e-005 -0.0071 -2.3249 -0.0142 4.36301e-007 -6.58693e-007 2.68538e-006 -0.6113 -8.7231 -2.0637 -5.56597e-015 -6.36111e-015 -0 0.1927 -3.8059 -0.2383 0.0163639 0.00304257 -0.000871862 0.1091 -2.1688 -0.1362 7.82836e-006 -1.77966e-006 -1.24989e-006 0.6151 -8.0947 -3.564 -5.56597e-015 -6.36111e-015 -0 0.4882 -2.341 -0.6462 0.0145308 0.0036658 -0.00324935 0.3574 -1.7166 -0.4742 3.57812e-015 0 -0 1.4199 -1.8761 1.4221 -5.56597e-015 -6.36111e-015 -0 1.1472 -3.4929 2.6336 -5.1684e-015 -1.59028e-015 -3.18055e-015 0.8229 -2.3 1.6571 -4.37326e-015 -4.77083e-015 -0 -9.412 3.9771 -0.7758 -8.18207 -14.031 -3.95916 -0.7531 -40.938 0 2.31775 45.2698 -2.4251 1.77636e-015 -40.1986 1.42109e-014 -8.45767 12.782 -0.0952984 0 -4.4182 9.239 1.12677e-006 -2.2826e-006 -1.04144e-008 9.4119 3.9773 -0.7758 15.6028 1.34543 5.36034 0.7532 -40.9383 -1.11022e-016 1.88426 8.85607 -0.241391 7.10543e-015 -40.1986 0 7.65745 10.0645 -2.6678 0 -4.4182 9.239 1.15414e-006 4.91413e-007 1.34147e-006 
